<svg width="96" height="96" viewBox="0 0 96 96" fill="none" xmlns="http://www.w3.org/2000/svg">
<path d="M28 44C30.6667 32 37.3333 27.3333 48 30C58.6667 32.6666 62.6667 40 60 52C57.3333 64 50.6667 68.6666 40 66C29.3333 63.3333 25.3333 56 28 44Z" stroke="#9C0A6D" stroke-width="2" stroke-linecap="round" stroke-linejoin="round"/>
<path d="M46 26C48.2091 26 50 24.2091 50 22C50 19.7909 48.2091 18 46 18C43.7909 18 42 19.7909 42 22C42 24.2091 43.7909 26 46 26Z" stroke="#9C0A6D" stroke-width="2" stroke-linecap="round" stroke-linejoin="round"/>
<path d="M56 28C58.2091 28 60 26.2091 60 24C60 21.7909 58.2091 20 56 20C53.7909 20 52 21.7909 52 24C52 26.2091 53.7909 28 56 28Z" stroke="#9C0A6D" stroke-width="2" stroke-linecap="round" stroke-linejoin="round"/>
<path d="M64 34C66.2091 34 68 32.2091 68 30C68 27.7909 66.2091 26 64 26C61.7909 26 60 27.7909 60 30C60 32.2091 61.7909 34 64 34Z" stroke="#9C0A6D" stroke-width="2" stroke-linecap="round" stroke-linejoin="round"/>
<path d="M68 42C70.2091 42 72 40.2091 72 38C72 35.7909 70.2091 34 68 34C65.7909 34 64 35.7909 64 38C64 40.2091 65.7909 42 68 42Z" stroke="#9C0A6D" stroke-width="2" stroke-linecap="round" stroke-linejoin="round"/>
<path d="M70 52C72.2091 52 74 50.2091 74 48C74 45.7909 72.2091 44 70 44C67.7909 44 66 45.7909 66 48C66 50.2091 67.7909 52 70 52Z" stroke="#9C0A6D" stroke-width="2" stroke-linecap="round" stroke-linejoin="round"/>
</svg>
