<svg width="59" height="53" viewBox="0 0 59 53" fill="none" xmlns="http://www.w3.org/2000/svg">
<path d="M44.25 9.9375H14.75C13.3923 9.9375 12.2917 10.9262 12.2917 12.1458V40.8542C12.2917 42.0738 13.3923 43.0625 14.75 43.0625H44.25C45.6077 43.0625 46.7083 42.0738 46.7083 40.8542V12.1458C46.7083 10.9262 45.6077 9.9375 44.25 9.9375Z" stroke="#9C0A6D" stroke-width="2" stroke-linecap="round" stroke-linejoin="round"/>
<path d="M43.0208 13.25H15.9792V32.0208H43.0208V13.25Z" stroke="#9C0A6D" stroke-width="2" stroke-linecap="round" stroke-linejoin="round"/>
<path d="M25.8125 32.573C25.8125 31.9873 26.0715 31.4256 26.5325 31.0114C26.9936 30.5973 27.6188 30.3646 28.2708 30.3646C28.9228 30.3646 29.5481 30.5973 30.0091 31.0114C30.4702 31.4256 30.7292 31.9873 30.7292 32.573C30.7292 35.3334 25.8125 37.5417 25.8125 37.5417C25.8125 37.5417 20.8958 35.3334 20.8958 32.573C20.8958 31.9873 21.1548 31.4256 21.6159 31.0114C22.0769 30.5973 22.7022 30.3646 23.3542 30.3646C24.0062 30.3646 24.6314 30.5973 25.0925 31.0114C25.5535 31.4256 25.8125 31.9873 25.8125 32.573Z" fill="#9C0A6D"/>
</svg>
